<?xml version="1.0" encoding="utf-8"?>
<!-- Generator: Adobe Illustrator 20.1.0, SVG Export Plug-In . SVG Version: 6.00 Build 0)  -->
<svg version="1.1" id="Alerts" xmlns="http://www.w3.org/2000/svg" xmlns:xlink="http://www.w3.org/1999/xlink" x="0px" y="0px"
	 viewBox="0 0 30.86 36.84" style="enable-background:new 0 0 30.86 36.84;" xml:space="preserve">
<style type="text/css">
	.st0{enable-background:new    ;}
	.st1{fill:#FFFFFF;}
</style>
<g class="st0">
	<path class="st1" d="M15.42,2.59c8.52,0,15.43,6.91,15.43,15.43s-6.91,15.43-15.43,15.43S-0.01,26.55-0.01,18.03
		S6.9,2.59,15.42,2.59z M5.13,19.31c0,0.7,0.58,1.29,1.29,1.29h10.09l-3.8,3.8c-0.24,0.24-0.38,0.56-0.38,0.9s0.14,0.66,0.38,0.9
		l1.83,1.83c0.24,0.24,0.56,0.36,0.9,0.36c0.34,0,0.66-0.12,0.9-0.36l7.27-7.27l1.83-1.83c0.24-0.24,0.36-0.56,0.36-0.9
		s-0.12-0.66-0.36-0.9l-1.83-1.83l-7.27-7.27c-0.24-0.24-0.56-0.36-0.9-0.36c-0.34,0-0.66,0.12-0.9,0.36l-1.83,1.83
		c-0.24,0.24-0.36,0.56-0.36,0.9s0.12,0.66,0.36,0.9l3.8,3.8H6.42c-0.7,0-1.29,0.58-1.29,1.29V19.31z"/>
</g>
</svg>
