<?xml version="1.0" encoding="utf-8"?>
<!-- Generator: Adobe Illustrator 20.1.0, SVG Export Plug-In . SVG Version: 6.00 Build 0)  -->
<svg version="1.1" id="Alerts" xmlns="http://www.w3.org/2000/svg" xmlns:xlink="http://www.w3.org/1999/xlink" x="0px" y="0px"
	 viewBox="0 0 30.86 36.84" style="enable-background:new 0 0 30.86 36.84;" xml:space="preserve">
<style type="text/css">
	.st0{enable-background:new    ;}
	.st1{fill:#FFFFFF;}
</style>
<g class="st0">
	<path class="st1" d="M15.43,34.25C6.91,34.25,0,27.34,0,18.82C0,10.3,6.91,3.39,15.43,3.39s15.43,6.91,15.43,15.43
		C30.87,27.34,23.95,34.25,15.43,34.25z M25.72,17.53c0-0.7-0.58-1.29-1.29-1.29H14.35l3.8-3.8c0.24-0.24,0.38-0.56,0.38-0.9
		s-0.14-0.66-0.38-0.9l-1.83-1.83c-0.24-0.24-0.56-0.36-0.9-0.36c-0.34,0-0.66,0.12-0.9,0.36l-7.27,7.27l-1.83,1.83
		c-0.24,0.24-0.36,0.56-0.36,0.9c0,0.34,0.12,0.66,0.36,0.9l1.83,1.83l7.27,7.27c0.24,0.24,0.56,0.36,0.9,0.36
		c0.34,0,0.66-0.12,0.9-0.36L18.15,27c0.24-0.24,0.36-0.56,0.36-0.9s-0.12-0.66-0.36-0.9l-3.8-3.8h10.09c0.7,0,1.29-0.58,1.29-1.29
		V17.53z"/>
</g>
</svg>
