<?xml version="1.0" encoding="utf-8"?>
<!-- Generator: Adobe Illustrator 22.1.0, SVG Export Plug-In . SVG Version: 6.00 Build 0)  -->
<svg version="1.1" id="Form_templates" xmlns="http://www.w3.org/2000/svg" xmlns:xlink="http://www.w3.org/1999/xlink" x="0px"
	 y="0px" width="17.992px" height="17.992px" viewBox="0 0 17.992 17.992" style="enable-background:new 0 0 17.992 17.992;"
	 xml:space="preserve">
<style type="text/css">
	.st0{fill:#5B606B;}
</style>
<g>
	<path class="st0" d="M4.498,5.462v10.924c0,0.884-0.723,1.606-1.606,1.606H1.606C0.723,17.992,0,17.27,0,16.386V5.462
		c0-0.884,0.723-1.606,1.606-1.606h1.285C3.775,3.855,4.498,4.578,4.498,5.462z M17.992,7.711v7.711c0,1.416-1.155,2.57-2.57,2.57
		H6.747c-0.884,0-1.606-0.723-1.606-1.606V0.964C5.141,0.432,5.572,0,6.104,0h6.747c0.532,0,1.274,0.311,1.646,0.683l1.526,1.526
		c0.371,0.371,0.683,1.114,0.683,1.646v1.637C17.47,5.934,17.992,6.768,17.992,7.711z M15.422,3.855h-1.606
		c-0.532,0-0.964-0.432-0.964-0.964V1.285H6.426v5.141h8.996V3.855z M9.317,8.996c0-0.181-0.141-0.321-0.321-0.321H7.711
		c-0.181,0-0.321,0.141-0.321,0.321v1.285c0,0.181,0.141,0.321,0.321,0.321h1.285c0.181,0,0.321-0.141,0.321-0.321V8.996z
		 M9.317,11.566c0-0.181-0.141-0.321-0.321-0.321H7.711c-0.181,0-0.321,0.141-0.321,0.321v1.285c0,0.181,0.141,0.321,0.321,0.321
		h1.285c0.181,0,0.321-0.141,0.321-0.321V11.566z M9.317,14.137c0-0.181-0.141-0.321-0.321-0.321H7.711
		c-0.181,0-0.321,0.141-0.321,0.321v1.285c0,0.181,0.141,0.321,0.321,0.321h1.285c0.181,0,0.321-0.141,0.321-0.321V14.137z
		 M11.888,8.996c0-0.181-0.141-0.321-0.321-0.321h-1.285c-0.181,0-0.321,0.141-0.321,0.321v1.285c0,0.181,0.141,0.321,0.321,0.321
		h1.285c0.181,0,0.321-0.141,0.321-0.321V8.996z M11.888,11.566c0-0.181-0.141-0.321-0.321-0.321h-1.285
		c-0.181,0-0.321,0.141-0.321,0.321v1.285c0,0.181,0.141,0.321,0.321,0.321h1.285c0.181,0,0.321-0.141,0.321-0.321V11.566z
		 M11.888,14.137c0-0.181-0.141-0.321-0.321-0.321h-1.285c-0.181,0-0.321,0.141-0.321,0.321v1.285c0,0.181,0.141,0.321,0.321,0.321
		h1.285c0.181,0,0.321-0.141,0.321-0.321V14.137z M14.458,8.996c0-0.181-0.141-0.321-0.321-0.321h-1.285
		c-0.181,0-0.321,0.141-0.321,0.321v1.285c0,0.181,0.141,0.321,0.321,0.321h1.285c0.181,0,0.321-0.141,0.321-0.321V8.996z
		 M14.458,11.566c0-0.181-0.141-0.321-0.321-0.321h-1.285c-0.181,0-0.321,0.141-0.321,0.321v1.285c0,0.181,0.141,0.321,0.321,0.321
		h1.285c0.181,0,0.321-0.141,0.321-0.321V11.566z M14.458,14.137c0-0.181-0.141-0.321-0.321-0.321h-1.285
		c-0.181,0-0.321,0.141-0.321,0.321v1.285c0,0.181,0.141,0.321,0.321,0.321h1.285c0.181,0,0.321-0.141,0.321-0.321V14.137z"/>
</g>
</svg>
