<?xml version="1.0" encoding="utf-8"?>
<!-- Generator: Adobe Illustrator 22.1.0, SVG Export Plug-In . SVG Version: 6.00 Build 0)  -->
<svg version="1.1" id="Form_templates" xmlns="http://www.w3.org/2000/svg" xmlns:xlink="http://www.w3.org/1999/xlink" x="0px"
	 y="0px" width="16.714px" height="18.422px" viewBox="0 0 16.714 18.422" style="enable-background:new 0 0 16.714 18.422;"
	 xml:space="preserve">
<style type="text/css">
	.st0{fill:#5B606B;}
</style>
<g>
	<path class="st0" d="M16.707,16.161c0,0.532-0.432,0.964-0.964,0.964H0.964C0.432,17.125,0,16.693,0,16.161v-3.213
		c0-0.532,0.432-0.964,0.964-0.964h4.287c0.271,0.743,0.984,1.285,1.817,1.285h2.57c0.833,0,1.546-0.542,1.817-1.285h4.287
		c0.532,0,0.964,0.432,0.964,0.964V16.161z M12.852,6.844h-2.57v4.498c0,0.352-0.291,0.643-0.643,0.643h-2.57
		c-0.352,0-0.643-0.291-0.643-0.643V6.844h-2.57c-0.261,0-0.492-0.16-0.593-0.402c-0.1-0.23-0.05-0.512,0.141-0.691l4.498-4.498
		c0.121-0.131,0.291-0.191,0.452-0.191s0.331,0.061,0.452,0.191l4.498,4.498c0.19,0.18,0.24,0.461,0.141,0.691
		C13.344,6.684,13.112,6.844,12.852,6.844z M12.209,14.555c-0.352,0-0.643,0.291-0.643,0.643s0.291,0.643,0.643,0.643
		s0.643-0.291,0.643-0.643S12.561,14.555,12.209,14.555z M14.779,14.555c-0.352,0-0.643,0.291-0.643,0.643s0.291,0.643,0.643,0.643
		s0.643-0.291,0.643-0.643S15.131,14.555,14.779,14.555z"/>
</g>
</svg>
