<?xml version="1.0" encoding="utf-8"?>
<!-- Generator: Adobe Illustrator 22.1.0, SVG Export Plug-In . SVG Version: 6.00 Build 0)  -->
<svg version="1.1" id="Alerts" xmlns="http://www.w3.org/2000/svg" xmlns:xlink="http://www.w3.org/1999/xlink" x="0px" y="0px"
	 width="18.01px" height="30.87px" viewBox="0 0 18.01 30.87" style="enable-background:new 0 0 18.01 30.87;" xml:space="preserve"
	>
<style type="text/css">
	.st0{fill:#5B606B;}
</style>
<g>
	<g>
		<path class="st0" d="M11.571,30.953h-1.328L10.04,30.9c-0.377-0.188-0.754-0.378-1.226-0.566l0.371-0.928
			c0.018,0.007,0.035,0.014,0.051,0.021c-0.007-0.018-0.014-0.034-0.021-0.052l0.928-0.371c0.173,0.431,0.351,0.877,0.569,1.095
			L11.571,30.953z"/>
		<path class="st0" d="M6.4,28.932c-0.853-0.538-1.63-1.108-2.31-1.696l0.653-0.756c0.643,0.555,1.379,1.095,2.189,1.606L6.4,28.932
			z M2.102,25.136c-0.599-0.789-1.088-1.638-1.456-2.521L1.57,22.23c0.334,0.806,0.782,1.58,1.329,2.302L2.102,25.136z
			 M-0.118,19.807c-0.086-0.607-0.13-1.244-0.13-1.893c0-0.352,0.018-0.688,0.053-1.013l0.994,0.107
			c-0.031,0.289-0.047,0.591-0.047,0.905c0,0.602,0.041,1.19,0.121,1.752L-0.118,19.807z M1.53,14.525l-0.891-0.454
			c0.418-0.819,0.987-1.591,1.739-2.36l0.715,0.699C2.413,13.105,1.901,13.797,1.53,14.525z M5.152,10.626L4.537,9.838l0.451-0.35
			c0.61-0.472,1.186-0.918,1.697-1.38L7.355,8.85c-0.54,0.488-1.13,0.946-1.756,1.43L5.152,10.626z M9.168,6.477L8.243,6.095
			C8.416,5.677,8.5,5.25,8.5,4.791c0-0.332-0.05-0.744-0.138-1.13l0.975-0.222C9.44,3.895,9.5,4.388,9.5,4.791
			C9.5,5.375,9.388,5.943,9.168,6.477z"/>
		<path class="st0" d="M7.855,1.963C7.666,1.491,7.478,1.018,7.289,0.64L6.928-0.083h0.927l0.203,0.053
			c0.381,0.19,0.757,0.379,1.226,0.566L8.912,1.464C8.838,1.435,8.767,1.405,8.697,1.376C8.726,1.448,8.755,1.52,8.784,1.592
			L7.855,1.963z"/>
		<path class="st0" d="M8.667,27.461C8.556,27.004,8.5,26.539,8.5,26.079c0-0.576,0.104-1.134,0.31-1.656l0.931,0.365
			C9.579,25.2,9.5,25.622,9.5,26.079c0,0.381,0.046,0.767,0.138,1.147L8.667,27.461z M11.267,22.762l-0.676-0.738
			c0.563-0.516,1.186-0.994,1.845-1.501l0.361-0.278l0.611,0.791l-0.363,0.28C12.404,21.809,11.798,22.274,11.267,22.762z
			 M15.579,19.179l-0.709-0.705c0.687-0.688,1.203-1.375,1.581-2.1l0.887,0.463C16.913,17.652,16.337,18.418,15.579,19.179z
			 M18.191,14.012l-0.994-0.112c0.034-0.301,0.052-0.615,0.052-0.943c0-0.585-0.038-1.162-0.111-1.714l0.99-0.133
			c0.08,0.596,0.121,1.217,0.121,1.847C18.249,13.323,18.229,13.675,18.191,14.012z M16.469,8.668
			c-0.326-0.812-0.763-1.59-1.299-2.315l0.803-0.595c0.588,0.793,1.066,1.646,1.424,2.538L16.469,8.668z M13.345,4.394
			c-0.638-0.558-1.372-1.099-2.182-1.61l0.533-0.846c0.854,0.539,1.63,1.112,2.307,1.703L13.345,4.394z"/>
	</g>
</g>
</svg>
