<?xml version="1.0" encoding="utf-8"?>
<!-- Generator: Adobe Illustrator 20.1.0, SVG Export Plug-In . SVG Version: 6.00 Build 0)  -->
<svg version="1.1" id="Alerts" xmlns="http://www.w3.org/2000/svg" xmlns:xlink="http://www.w3.org/1999/xlink" x="0px" y="0px"
	 viewBox="0 0 15.95 15.96" xml:space="preserve">
	<path fill="#4aa564" d="M7.98,15.96C3.57,15.96,0,12.39,0,7.98C0,3.57,3.57,0,7.98,0s7.98,3.57,7.98,7.98
		C15.96,12.39,12.38,15.96,7.98,15.96z M13.15,5.82l-0.95-0.94c-0.12-0.12-0.29-0.2-0.47-0.2s-0.34,0.07-0.47,0.2L7.04,9.11
		L4.69,6.76c-0.12-0.12-0.29-0.2-0.47-0.2s-0.34,0.07-0.47,0.2L2.81,7.7C2.69,7.82,2.63,8,2.63,8.17c0,0.18,0.06,0.34,0.19,0.47
		l3.75,3.77c0.12,0.12,0.3,0.2,0.47,0.2c0.18,0,0.35-0.07,0.48-0.2l5.64-5.64c0.12-0.12,0.19-0.29,0.19-0.47
		C13.34,6.12,13.28,5.95,13.15,5.82z"/>
</svg>
