<?xml version="1.0" encoding="utf-8"?>
<!-- Generator: Adobe Illustrator 21.1.0, SVG Export Plug-In . SVG Version: 6.00 Build 0)  -->
<svg version="1.0" id="Alerts" xmlns="http://www.w3.org/2000/svg" xmlns:xlink="http://www.w3.org/1999/xlink" x="0px" y="0px"
	 width="34.38px" height="34.38px" viewBox="0 0 34.38 34.38" style="enable-background:new 0 0 34.38 34.38;" xml:space="preserve"
	>
<style type="text/css">
	.st0{fill:#FFFFFF;}
	.st1{fill:#0071BC;}
</style>
<circle class="st0" cx="17.19" cy="17.19" r="17.19"/>
<g>
	<path class="st1" d="M32.11,21.16c-0.7,2.65-2.03,4.96-4.01,6.94s-4.29,3.32-6.94,4.01c-2.65,0.7-5.29,0.7-7.94,0
		c-2.65-0.7-4.96-2.03-6.94-4.01c-1.98-1.98-3.32-4.29-4.01-6.94c-0.7-2.65-0.7-5.29,0-7.94c0.7-2.65,2.03-4.96,4.01-6.94
		s4.29-3.32,6.94-4.01c2.65-0.7,5.29-0.7,7.94,0c2.65,0.7,4.96,2.03,6.94,4.01c1.98,1.98,3.32,4.29,4.01,6.94
		C32.81,15.86,32.81,18.51,32.11,21.16z M22.64,24.46l1.82-1.82c0.25-0.25,0.37-0.55,0.37-0.91c0-0.36-0.12-0.66-0.37-0.91
		l-3.64-3.64l3.64-3.64c0.25-0.25,0.37-0.55,0.37-0.91c0-0.36-0.12-0.66-0.37-0.91l-1.82-1.82c-0.25-0.25-0.55-0.37-0.91-0.37
		c-0.36,0-0.66,0.12-0.91,0.37l-3.64,3.64l-3.64-3.64C13.3,9.67,13,9.55,12.64,9.55c-0.36,0-0.66,0.12-0.91,0.37l-1.82,1.82
		c-0.25,0.25-0.37,0.55-0.37,0.91c0,0.36,0.12,0.66,0.37,0.91l3.64,3.64l-3.64,3.64c-0.25,0.25-0.37,0.55-0.37,0.91
		c0,0.36,0.12,0.66,0.37,0.91l1.82,1.82c0.25,0.25,0.55,0.37,0.91,0.37c0.36,0,0.66-0.12,0.91-0.37l3.64-3.64l3.64,3.64
		c0.25,0.25,0.55,0.37,0.91,0.37C22.09,24.83,22.4,24.71,22.64,24.46z"/>
</g>
</svg>
