<?xml version="1.0" encoding="utf-8"?>
<!-- Generator: Adobe Illustrator 20.1.0, SVG Export Plug-In . SVG Version: 6.00 Build 0)  -->
<svg version="1.1" id="Alerts" xmlns="http://www.w3.org/2000/svg" xmlns:xlink="http://www.w3.org/1999/xlink" x="0px" y="0px"
	 viewBox="0 0 13.81 99.53" style="enable-background:new 0 0 13.81 99.53;" xml:space="preserve">
<style type="text/css">
	.st0{fill:#ADAFB5;}
</style>
<g>
	<path class="st0" d="M13.48,93.42L7.71,99.2c-0.21,0.2-0.51,0.33-0.81,0.33s-0.59-0.12-0.8-0.33l-5.77-5.78
		C0.12,93.22,0,92.93,0,92.63c0-0.3,0.12-0.59,0.34-0.81l0.66-0.66c0.21-0.2,0.51-0.33,0.81-0.33s0.59,0.12,0.8,0.33l2.61,2.61V1.13
		C5.2,0.51,5.72,0,6.34,0h1.13c0.62,0,1.13,0.51,1.13,1.13v92.63l2.61-2.61c0.2-0.2,0.5-0.33,0.8-0.33s0.59,0.12,0.81,0.33
		l0.66,0.66c0.2,0.21,0.33,0.51,0.33,0.81C13.81,92.93,13.68,93.22,13.48,93.42z"/>
</g>
</svg>
