<?xml version="1.0" encoding="utf-8"?>
<!-- Generator: Adobe Illustrator 20.1.0, SVG Export Plug-In . SVG Version: 6.00 Build 0)  -->
<svg version="1.1" id="Alerts" xmlns="http://www.w3.org/2000/svg" xmlns:xlink="http://www.w3.org/1999/xlink" x="0px" y="0px"
	 viewBox="0 0 30.86 36.84" style="enable-background:new 0 0 30.86 36.84;" xml:space="preserve">
<style type="text/css">
	.st0{fill:#FFFFFF;}
	.st1{enable-background:new    ;}
	.st2{fill:#E21C3C;}
</style>
<ellipse class="st0" cx="15.31" cy="19.31" rx="8.31" ry="12.19"/>
<g class="st1">
	<path fill="#cd2026" class="st2" d="M30.87,18.82c0,8.52-6.91,15.43-15.43,15.43S0,27.34,0,18.82C0,10.3,6.91,3.39,15.43,3.39
		S30.87,10.3,30.87,18.82z M18.33,9.05c0-0.14-0.06-0.28-0.2-0.36c-0.12-0.1-0.3-0.16-0.48-0.16h-4.42c-0.18,0-0.36,0.06-0.48,0.16
		c-0.14,0.08-0.2,0.22-0.2,0.36l0.34,12.48c0,0.28,0.3,0.5,0.68,0.5h3.72c0.36,0,0.66-0.22,0.68-0.5L18.33,9.05z M18.01,24.63
		c0-0.36-0.28-0.66-0.62-0.66h-3.86c-0.36,0-0.66,0.3-0.66,0.66v3.82c0,0.36,0.3,0.66,0.66,0.66h3.86c0.34,0,0.62-0.3,0.62-0.66
		V24.63z"/>
</g>
</svg>
