<?xml version="1.0" encoding="utf-8"?>
<!-- Generator: Adobe Illustrator 20.1.0, SVG Export Plug-In . SVG Version: 6.00 Build 0)  -->
<svg version="1.1" id="Alerts" xmlns="http://www.w3.org/2000/svg" xmlns:xlink="http://www.w3.org/1999/xlink" x="0px" y="0px"
	 viewBox="0 0 15.95 15.95" xml:space="preserve">
<g class="st0">
	<path fill="#cd2026" d="M15.95,7.97c0,4.4-3.57,7.97-7.97,7.97S0,12.38,0,7.97S3.57,0,7.97,0S15.95,3.57,15.95,7.97z M9.47,2.93
		c0-0.07-0.03-0.14-0.1-0.19C9.31,2.69,9.21,2.66,9.12,2.66H6.84c-0.09,0-0.19,0.03-0.25,0.08c-0.07,0.04-0.1,0.11-0.1,0.19
		l0.18,6.45c0,0.14,0.16,0.26,0.35,0.26h1.92c0.19,0,0.34-0.11,0.35-0.26L9.47,2.93z M9.31,10.98c0-0.19-0.14-0.34-0.32-0.34H6.99
		c-0.19,0-0.34,0.16-0.34,0.34v1.97c0,0.19,0.16,0.34,0.34,0.34h1.99c0.18,0,0.32-0.16,0.32-0.34V10.98z"/>
</g>
</svg>
