<?xml version="1.0" encoding="utf-8"?>
<!-- Generator: Adobe Illustrator 20.1.0, SVG Export Plug-In . SVG Version: 6.00 Build 0)  -->
<svg version="1.1" id="Alerts" xmlns="http://www.w3.org/2000/svg" xmlns:xlink="http://www.w3.org/1999/xlink" x="0px" y="0px"
	 viewBox="0 0 36 36.8" style="enable-background:new 0 0 36 36.8;" xml:space="preserve">
<style type="text/css">
	.st0{fill:url(#SVGID_1_);}
</style>
<g>
	<linearGradient id="SVGID_1_" gradientUnits="userSpaceOnUse" x1="5.5063" y1="11.354" x2="30.5047" y2="28.858">
		<stop  offset="0" style="stop-color:#ADD25F"/>
		<stop  offset="0.3526" style="stop-color:#B69AC9"/>
		<stop  offset="0.6741" style="stop-color:#9AD7DA"/>
		<stop  offset="1" style="stop-color:#9F508D"/>
	</linearGradient>
	<path class="st0" d="M35.6,21.5C31.9,27.6,25.1,31.7,18,31.7S4.1,27.6,0.4,21.5C0.2,21.1,0,20.6,0,20.1s0.2-1,0.4-1.4
		C4.1,12.7,10.9,8.5,18,8.5s13.9,4.1,17.6,10.2c0.2,0.4,0.4,0.9,0.4,1.4C36,20.6,35.8,21.1,35.6,21.5z M25.8,13
		c0.8,1.4,1.2,2.9,1.2,4.5c0,5-4,9-9,9s-9-4-9-9c0-1.6,0.4-3.2,1.2-4.5c-3.1,1.6-5.8,4.1-7.7,7.1c3.4,5.3,9,9,15.4,9s12-3.7,15.4-9
		C31.5,17.1,28.9,14.6,25.8,13z M18,11.4c-3.4,0-6.1,2.8-6.1,6.1c0,0.5,0.4,1,1,1s1-0.4,1-1c0-2.3,1.9-4.2,4.2-4.2c0.5,0,1-0.4,1-1
		C19,11.9,18.5,11.4,18,11.4z"/>
</g>
</svg>
