<?xml version="1.0" encoding="utf-8"?>
<!-- Generator: Adobe Illustrator 20.1.0, SVG Export Plug-In . SVG Version: 6.00 Build 0)  -->
<svg version="1.1" id="Alerts" xmlns="http://www.w3.org/2000/svg" xmlns:xlink="http://www.w3.org/1999/xlink" x="0px" y="0px"
	 viewBox="0 0 36 36.84" style="enable-background:new 0 0 36 36.84;" xml:space="preserve">
<style type="text/css">
	.st0{fill:#5B606B;}
</style>
<g>
	<path class="st0" d="M35.61,21.49c-3.7,6.09-10.47,10.19-17.6,10.19S4.1,27.56,0.4,21.49C0.16,21.07,0,20.61,0,20.11
		c0-0.5,0.16-0.96,0.4-1.39c3.7-6.07,10.47-10.19,17.6-10.19s13.91,4.12,17.6,10.19c0.24,0.42,0.4,0.88,0.4,1.39
		C36.01,20.61,35.85,21.07,35.61,21.49z M25.78,13.01c0.8,1.37,1.23,2.93,1.23,4.52c0,4.96-4.04,9-9,9s-9-4.04-9-9
		c0-1.59,0.42-3.16,1.23-4.52c-3.13,1.61-5.75,4.14-7.66,7.09c3.44,5.3,8.98,9,15.43,9s12-3.7,15.43-9
		C31.53,17.15,28.92,14.62,25.78,13.01z M18.01,11.42c-3.36,0-6.11,2.75-6.11,6.11c0,0.52,0.44,0.96,0.96,0.96s0.96-0.44,0.96-0.96
		c0-2.29,1.89-4.18,4.18-4.18c0.52,0,0.96-0.44,0.96-0.96C18.97,11.87,18.53,11.42,18.01,11.42z"/>
</g>
</svg>
