<?xml version="1.0" encoding="utf-8"?>
<!-- Generator: Adobe Illustrator 20.1.0, SVG Export Plug-In . SVG Version: 6.00 Build 0)  -->
<svg version="1.1" id="Alerts" xmlns="http://www.w3.org/2000/svg" xmlns:xlink="http://www.w3.org/1999/xlink" x="0px" y="0px"
	 viewBox="0 0 44.33 34.84" style="enable-background:new 0 0 44.33 34.84;" xml:space="preserve">
<style type="text/css">
	.st0{fill:#5B606B;}
</style>
<g>
	<path class="st0" d="M17.42,25.33c-1.51,0-2.97-0.15-4.35-0.4c-2.05,1.46-4.38,2.52-6.88,3.17c-0.67,0.17-1.39,0.3-2.13,0.4
		c-0.03,0-0.05,0-0.07,0c-0.37,0-0.72-0.3-0.79-0.72c-0.1-0.47,0.22-0.77,0.49-1.09c0.97-1.09,2.05-2.05,2.89-4.11
		C2.57,20.26,0,16.67,0,12.67C0,5.67,7.79,0,17.42,0s17.42,5.67,17.42,12.67C34.83,19.67,27.04,25.33,17.42,25.33z M37.75,28.92
		c0.84,2.05,1.93,3.02,2.89,4.11c0.27,0.32,0.59,0.62,0.49,1.09c-0.1,0.45-0.47,0.77-0.87,0.72c-0.74-0.1-1.46-0.22-2.13-0.4
		c-2.5-0.64-4.82-1.71-6.88-3.17c-1.39,0.25-2.85,0.4-4.35,0.4c-4.48,0-8.59-1.24-11.68-3.27c0.72,0.05,1.46,0.1,2.18,0.1
		c5.32,0,10.34-1.53,14.18-4.3C35.72,21.18,38,17.1,38,12.67c0-1.29-0.2-2.55-0.57-3.76c4.18,2.3,6.9,5.96,6.9,10.09
		C44.33,23.03,41.76,26.6,37.75,28.92z"/>
</g>
</svg>
