<?xml version="1.0" encoding="utf-8"?>
<!-- Generator: Adobe Illustrator 21.1.0, SVG Export Plug-In . SVG Version: 6.00 Build 0)  -->
<svg version="1.0" id="Accordions" xmlns="http://www.w3.org/2000/svg" xmlns:xlink="http://www.w3.org/1999/xlink" x="0px" y="0px"
	 width="14.57px" height="14.57px" viewBox="0 0 14.57 14.57" style="enable-background:new 0 0 14.57 14.57;" xml:space="preserve"
	>
<style type="text/css">
	.st0{fill:#00A6D2;}
</style>
<g>
	<path class="st0" d="M13.59,3.63c0.65,1.12,0.98,2.34,0.98,3.66s-0.33,2.54-0.98,3.66c-0.65,1.12-1.54,2-2.65,2.65
		s-2.33,0.98-3.66,0.98c-1.32,0-2.54-0.33-3.66-0.98s-2-1.54-2.65-2.65C0.33,9.83,0,8.61,0,7.29s0.33-2.54,0.98-3.66
		c0.65-1.12,1.54-2,2.65-2.65S5.96,0,7.29,0c1.32,0,2.54,0.33,3.66,0.98S12.94,2.51,13.59,3.63z M10.93,5.46
		c0-0.56-0.18-1.07-0.53-1.55c-0.35-0.47-0.79-0.84-1.31-1.1C8.56,2.56,8.03,2.43,7.48,2.43c-1.54,0-2.71,0.67-3.52,2.02
		C3.86,4.6,3.89,4.73,4.03,4.85L5.28,5.8c0.04,0.04,0.1,0.06,0.18,0.06c0.1,0,0.18-0.04,0.24-0.11c0.33-0.43,0.61-0.72,0.82-0.87
		C6.73,4.71,7,4.64,7.33,4.64c0.3,0,0.57,0.08,0.81,0.25C8.38,5.05,8.5,5.24,8.5,5.45c0,0.24-0.06,0.43-0.19,0.58
		C8.18,6.17,7.97,6.31,7.67,6.45C7.27,6.63,6.9,6.9,6.57,7.27c-0.33,0.37-0.5,0.77-0.5,1.19V8.8c0,0.09,0.03,0.16,0.09,0.22
		c0.06,0.06,0.13,0.09,0.22,0.09H8.2c0.09,0,0.16-0.03,0.22-0.09C8.47,8.96,8.5,8.89,8.5,8.8c0-0.12,0.07-0.28,0.2-0.47
		c0.14-0.19,0.31-0.35,0.52-0.47c0.2-0.11,0.36-0.21,0.46-0.27s0.25-0.18,0.44-0.33c0.18-0.15,0.32-0.31,0.42-0.46
		c0.1-0.15,0.19-0.34,0.27-0.57C10.89,6,10.93,5.74,10.93,5.46z M8.5,11.84v-1.82c0-0.09-0.03-0.16-0.08-0.22
		C8.36,9.74,8.29,9.71,8.2,9.71H6.38c-0.09,0-0.16,0.03-0.22,0.08C6.1,9.86,6.07,9.93,6.07,10.02v1.82c0,0.09,0.03,0.16,0.09,0.22
		c0.06,0.06,0.13,0.08,0.22,0.08H8.2c0.09,0,0.16-0.03,0.22-0.08C8.47,12,8.5,11.93,8.5,11.84z"/>
</g>
</svg>
