<?xml version="1.0" encoding="utf-8"?>
<!-- Generator: Adobe Illustrator 20.1.0, SVG Export Plug-In . SVG Version: 6.00 Build 0)  -->
<svg version="1.1" id="Form_templates" xmlns="http://www.w3.org/2000/svg" xmlns:xlink="http://www.w3.org/1999/xlink" x="0px"
	 y="0px" viewBox="0 0 19.61 19.61" style="enable-background:new 0 0 19.61 19.61;" xml:space="preserve">
<style type="text/css">
	.st0{fill:#FFFFFF;}
	.st1{fill:#00A6D2;}
</style>
<ellipse class="st0" cx="9.92" cy="9.59" rx="7.21" ry="8.33"/>
<g>
	<path class="st1" d="M18.3,4.88c0.88,1.5,1.31,3.14,1.31,4.92s-0.44,3.42-1.31,4.92c-0.88,1.5-2.07,2.69-3.57,3.57
		c-1.5,0.88-3.14,1.31-4.92,1.31c-1.78,0-3.42-0.44-4.92-1.31c-1.5-0.88-2.69-2.07-3.57-3.57C0.44,13.23,0,11.58,0,9.81
		s0.44-3.42,1.32-4.92c0.88-1.5,2.07-2.69,3.57-3.57C6.39,0.44,8.03,0,9.81,0c1.78,0,3.42,0.44,4.92,1.32
		C16.23,2.19,17.42,3.38,18.3,4.88z M13.07,15.93v-2.04c0-0.12-0.04-0.22-0.12-0.3c-0.08-0.08-0.17-0.11-0.29-0.11h-1.23V6.95
		c0-0.12-0.04-0.22-0.11-0.3c-0.08-0.08-0.17-0.12-0.29-0.12H6.95c-0.12,0-0.22,0.04-0.29,0.12c-0.08,0.08-0.12,0.17-0.12,0.3v2.04
		c0,0.12,0.04,0.22,0.12,0.29C6.73,9.36,6.83,9.4,6.95,9.4h1.23v4.09H6.95c-0.12,0-0.22,0.04-0.29,0.11
		c-0.08,0.08-0.12,0.17-0.12,0.3v2.04c0,0.12,0.04,0.22,0.12,0.29c0.08,0.08,0.17,0.12,0.29,0.12h5.72c0.12,0,0.22-0.04,0.29-0.12
		C13.04,16.15,13.07,16.05,13.07,15.93z M11.44,4.49V2.45c0-0.12-0.04-0.22-0.11-0.29c-0.08-0.08-0.17-0.11-0.29-0.11H8.58
		c-0.12,0-0.22,0.04-0.29,0.11C8.21,2.23,8.17,2.33,8.17,2.45v2.04c0,0.12,0.04,0.22,0.12,0.29C8.36,4.86,8.46,4.9,8.58,4.9h2.45
		c0.12,0,0.22-0.04,0.29-0.12C11.4,4.71,11.44,4.61,11.44,4.49z"/>
</g>
</svg>
