<?xml version="1.0" encoding="utf-8"?>
<!-- Generator: Adobe Illustrator 20.1.0, SVG Export Plug-In . SVG Version: 6.00 Build 0)  -->
<svg version="1.1" id="Form_templates" xmlns="http://www.w3.org/2000/svg" xmlns:xlink="http://www.w3.org/1999/xlink" x="0px"
	 y="0px" viewBox="0 0 42.94 32.37" style="enable-background:new 0 0 42.94 32.37;" xml:space="preserve">
<style type="text/css">
	.st0{fill:#E0F3F8;}
	.st1{fill:#00A6D2;}
</style>
<rect y="15.59" class="st0" width="11.19" height="1.19"/>
<circle class="st1" cx="26.75" cy="16.19" r="16.19"/>
<g>
	<path class="st0" d="M35.24,11.26c0.88,1.5,1.31,3.14,1.31,4.92s-0.44,3.42-1.31,4.92c-0.88,1.5-2.07,2.69-3.57,3.57
		c-1.5,0.88-3.14,1.31-4.92,1.31c-1.78,0-3.42-0.44-4.92-1.31c-1.5-0.88-2.69-2.07-3.57-3.57c-0.88-1.5-1.32-3.14-1.32-4.92
		s0.44-3.42,1.32-4.92c0.88-1.5,2.07-2.69,3.57-3.57c1.5-0.88,3.14-1.32,4.92-1.32c1.78,0,3.42,0.44,4.92,1.32
		C33.18,8.57,34.36,9.76,35.24,11.26z M30.02,22.31v-2.04c0-0.12-0.04-0.22-0.12-0.3c-0.08-0.08-0.17-0.11-0.29-0.11h-1.23v-6.54
		c0-0.12-0.04-0.22-0.11-0.3c-0.08-0.08-0.17-0.12-0.29-0.12h-4.09c-0.12,0-0.22,0.04-0.29,0.12c-0.08,0.08-0.12,0.17-0.12,0.3v2.04
		c0,0.12,0.04,0.22,0.12,0.29c0.08,0.08,0.17,0.11,0.29,0.11h1.23v4.09h-1.23c-0.12,0-0.22,0.04-0.29,0.11
		c-0.08,0.08-0.12,0.17-0.12,0.3v2.04c0,0.12,0.04,0.22,0.12,0.29c0.08,0.08,0.17,0.12,0.29,0.12h5.72c0.12,0,0.22-0.04,0.29-0.12
		S30.02,22.43,30.02,22.31z M28.39,10.87V8.83c0-0.12-0.04-0.22-0.11-0.29c-0.08-0.08-0.17-0.11-0.29-0.11h-2.45
		c-0.12,0-0.22,0.04-0.29,0.11c-0.08,0.08-0.12,0.17-0.12,0.29v2.04c0,0.12,0.04,0.22,0.12,0.3c0.08,0.08,0.17,0.12,0.29,0.12h2.45
		c0.12,0,0.22-0.04,0.29-0.12C28.35,11.09,28.39,10.99,28.39,10.87z"/>
</g>
</svg>
