<?xml version="1.0" encoding="utf-8"?>
<!-- Generator: Adobe Illustrator 20.1.0, SVG Export Plug-In . SVG Version: 6.00 Build 0)  -->
<svg version="1.1" id="Form_templates" xmlns="http://www.w3.org/2000/svg" xmlns:xlink="http://www.w3.org/1999/xlink" x="0px"
	 y="0px" viewBox="0 0 32.4 32.4" style="enable-background:new 0 0 32.4 32.4;" xml:space="preserve">
<style type="text/css">
	.st0{fill:#E0F3F8;}
	.st1{fill:#00A6D2;}
</style>
<circle class="st0" cx="16.2" cy="16.2" r="16.2"/>
<g>
	<path class="st1" d="M16.2,25.9c-5.4,0-9.7-4.4-9.7-9.7c0-5.4,4.4-9.7,9.7-9.7s9.7,4.4,9.7,9.7S21.6,25.9,16.2,25.9z M16.5,9.7
		c-2.1,0-3.6,0.9-4.7,2.7c-0.1,0.2-0.1,0.4,0.1,0.5l1.7,1.3c0.1,0.1,0.2,0.1,0.2,0.1c0.1,0,0.2-0.1,0.3-0.2c0.6-0.8,0.8-1,1.1-1.2
		c0.2-0.2,0.6-0.3,1.1-0.3c0.8,0,1.6,0.5,1.6,1.1c0,0.7-0.3,1-1.1,1.3c-0.9,0.4-2.1,1.5-2.1,2.7v0.5c0,0.2,0.2,0.4,0.4,0.4h2.4
		c0.2,0,0.4-0.2,0.4-0.4c0-0.3,0.4-0.9,1-1.3c1-0.5,2.3-1.3,2.3-3.2C21.1,11.4,18.7,9.7,16.5,9.7z M17.8,19.8c0-0.2-0.2-0.4-0.4-0.4
		H15c-0.2,0-0.4,0.2-0.4,0.4v2.4c0,0.2,0.2,0.4,0.4,0.4h2.4c0.2,0,0.4-0.2,0.4-0.4V19.8z"/>
</g>
</svg>
