<?xml version="1.0" encoding="utf-8"?>
<!-- Generator: Adobe Illustrator 20.1.0, SVG Export Plug-In . SVG Version: 6.00 Build 0)  -->
<svg version="1.1" id="Layer_1" xmlns="http://www.w3.org/2000/svg" xmlns:xlink="http://www.w3.org/1999/xlink" x="0px" y="0px"
	 viewBox="0 0 62.9 62.65" style="enable-background:new 0 0 62.9 62.65;" xml:space="preserve">
<style type="text/css">
	.st0{fill:#606060;}
</style>
<path class="st0" d="M62.77,0.12V0H37.69v10h8.64l-6.4,6.4c-4.35-3.04-9.43-4.56-14.52-4.56c-6.5,0-13,2.48-17.96,7.44
	c-9.92,9.92-9.92,26.01,0,35.93c4.96,4.96,11.46,7.44,17.96,7.44c6.5,0,13-2.48,17.96-7.44c8.58-8.58,9.73-21.76,3.48-31.58
	l6.05-6.05v7.64h10V0.12H62.77z M36.3,48.14c-2.91,2.91-6.78,4.51-10.89,4.51c-4.11,0-7.98-1.6-10.89-4.51
	C11.6,45.23,10,41.36,10,37.24c0-4.11,1.6-7.98,4.51-10.89s6.78-4.51,10.89-4.51c4.11,0,7.98,1.6,10.89,4.51s4.51,6.78,4.51,10.89
	C40.81,41.36,39.21,45.23,36.3,48.14z"/>
</svg>
