<?xml version="1.0" encoding="utf-8"?>
<!-- Generator: Adobe Illustrator 20.1.0, SVG Export Plug-In . SVG Version: 6.00 Build 0)  -->
<svg version="1.1" id="Alerts" xmlns="http://www.w3.org/2000/svg" xmlns:xlink="http://www.w3.org/1999/xlink" x="0px" y="0px"
	 viewBox="0 0 74.94 28.35" style="enable-background:new 0 0 74.94 28.35;" xml:space="preserve">
<style type="text/css">
	.st0{fill:#5B606B;}
</style>
<g>
	<path class="st0" d="M30.54,9.79V0.78c0-0.4-0.31-0.71-0.71-0.71h-4.24c-0.4,0-0.71,0.31-0.71,0.71v4.31l-5.39-4.51
		c-0.93-0.77-2.43-0.77-3.36,0L0.25,13.82c-0.29,0.24-0.33,0.71-0.09,0.99l1.37,1.64c0.11,0.13,0.29,0.22,0.46,0.24
		c0.2,0.02,0.38-0.05,0.53-0.16L17.81,3.78L33.1,16.53c0.13,0.11,0.29,0.16,0.46,0.16c0.02,0,0.04,0,0.07,0
		c0.18-0.02,0.35-0.11,0.46-0.24l1.37-1.64c0.24-0.29,0.2-0.75-0.09-0.99L30.54,9.79z"/>
	<path class="st0" d="M17.81,5.73L5.11,16.2c0,0.05-0.02,0.09-0.02,0.13v10.61c0,0.77,0.64,1.41,1.41,1.41h8.49v-8.49h5.66v8.49
		h8.49c0.77,0,1.41-0.64,1.41-1.41V16.33c0-0.04,0-0.09-0.02-0.13L17.81,5.73z"/>
	<path class="st0" d="M57.12,5.73L44.42,16.2c0,0.05-0.02,0.09-0.02,0.13v10.61c0,0.77,0.64,1.41,1.41,1.41h8.49v-8.49h5.66v8.49
		h8.49c0.77,0,1.41-0.64,1.41-1.41V16.33c0-0.04,0-0.09-0.02-0.13L57.12,5.73z"/>
	<path class="st0" d="M74.69,13.82l-4.84-4.02V0.78c0-0.4-0.31-0.71-0.71-0.71H64.9c-0.4,0-0.71,0.31-0.71,0.71v4.31L58.8,0.58
		c-0.93-0.77-2.43-0.77-3.36,0L39.56,13.82c-0.29,0.24-0.33,0.71-0.09,0.99l1.37,1.64c0.11,0.13,0.29,0.22,0.46,0.24
		c0.2,0.02,0.38-0.05,0.53-0.16L57.12,3.78l15.29,12.75c0.13,0.11,0.29,0.16,0.46,0.16c0.02,0,0.04,0,0.07,0
		c0.18-0.02,0.35-0.11,0.46-0.24l1.37-1.64C75.02,14.52,74.98,14.06,74.69,13.82z"/>
</g>
</svg>
