<?xml version="1.0" encoding="utf-8"?>
<!-- Generator: Adobe Illustrator 20.1.0, SVG Export Plug-In . SVG Version: 6.00 Build 0)  -->
<svg version="1.1" id="Alerts" xmlns="http://www.w3.org/2000/svg" xmlns:xlink="http://www.w3.org/1999/xlink" x="0px" y="0px"
	 viewBox="0 0 36.62 36.62" style="enable-background:new 0 0 36.62 36.62;" xml:space="preserve">
<style type="text/css">
	.st0{fill:#5B606B;}
</style>
<g>
	<path class="st0" d="M18.31,36.62C8.2,36.62,0,28.42,0,18.31C0,8.2,8.2,0,18.31,0s18.31,8.2,18.31,18.31
		C36.62,28.42,28.42,36.62,18.31,36.62z M18.79,6.1c-3.89,0-6.79,1.67-8.84,5.08c-0.21,0.33-0.12,0.76,0.19,1l3.15,2.38
		c0.12,0.09,0.29,0.14,0.45,0.14c0.21,0,0.45-0.09,0.6-0.29c1.12-1.43,1.6-1.86,2.05-2.19c0.41-0.29,1.19-0.57,2.05-0.57
		c1.53,0,2.93,0.98,2.93,2.03c0,1.24-0.64,1.86-2.1,2.53c-1.69,0.76-4,2.74-4,5.05v0.86c0,0.43,0.33,0.76,0.76,0.76h4.58
		c0.43,0,0.76-0.33,0.76-0.76c0-0.55,0.69-1.72,1.81-2.36c1.81-1.03,4.29-2.41,4.29-6.03C27.46,9.37,22.89,6.1,18.79,6.1z
		 M21.36,25.17c0-0.43-0.33-0.76-0.76-0.76h-4.58c-0.43,0-0.76,0.33-0.76,0.76v4.58c0,0.43,0.33,0.76,0.76,0.76h4.58
		c0.43,0,0.76-0.33,0.76-0.76V25.17z"/>
</g>
</svg>
