<?xml version="1.0" encoding="utf-8"?>
<!-- Generator: Adobe Illustrator 21.1.0, SVG Export Plug-In . SVG Version: 6.00 Build 0)  -->
<svg version="1.1" id="Alerts" xmlns="http://www.w3.org/2000/svg" xmlns:xlink="http://www.w3.org/1999/xlink" x="0px" y="0px"
	 viewBox="0 0 38.57 36" style="enable-background:new 0 0 38.57 36;" xml:space="preserve">
<style type="text/css">
	.st0{fill:#344258;}
</style>
<g>
	<path class="st0" d="M11.91,18c-2.17,0.07-3.94,0.92-5.32,2.57H3.9c-1.1,0-2.02-0.27-2.77-0.81S0,18.42,0,17.38
		c0-4.73,0.83-7.09,2.49-7.09c0.08,0,0.37,0.14,0.87,0.42c0.5,0.28,1.16,0.57,1.96,0.85c0.8,0.29,1.6,0.43,2.39,0.43
		c0.9,0,1.79-0.15,2.67-0.46c-0.07,0.5-0.1,0.94-0.1,1.33C10.29,14.72,10.83,16.43,11.91,18z M11.35,1.51c1,1,1.51,2.22,1.51,3.64
		c0,1.42-0.5,2.63-1.51,3.64c-1,1-2.22,1.51-3.64,1.51c-1.42,0-2.63-0.5-3.64-1.51c-1-1-1.51-2.22-1.51-3.64
		c0-1.42,0.5-2.63,1.51-3.64C5.08,0.5,6.29,0,7.71,0C9.13,0,10.35,0.5,11.35,1.51z M33.43,30.8c0,1.61-0.49,2.88-1.47,3.81
		c-0.98,0.93-2.28,1.39-3.9,1.39H10.51c-1.62,0-2.92-0.46-3.9-1.39c-0.98-0.93-1.47-2.2-1.47-3.81c0-0.71,0.02-1.4,0.07-2.08
		s0.14-1.41,0.28-2.19c0.14-0.78,0.32-1.51,0.53-2.18c0.21-0.67,0.5-1.32,0.86-1.96c0.36-0.64,0.78-1.18,1.25-1.63
		c0.47-0.45,1.04-0.81,1.72-1.08c0.68-0.27,1.42-0.4,2.24-0.4c0.13,0,0.42,0.14,0.86,0.43c0.44,0.29,0.93,0.61,1.47,0.96
		c0.54,0.35,1.25,0.68,2.15,0.96c0.9,0.29,1.8,0.43,2.71,0.43c0.91,0,1.81-0.14,2.71-0.43c0.9-0.29,1.61-0.61,2.15-0.96
		c0.54-0.35,1.02-0.68,1.47-0.96c0.44-0.29,0.73-0.43,0.86-0.43c0.82,0,1.56,0.13,2.24,0.4c0.68,0.27,1.25,0.63,1.72,1.08
		c0.47,0.45,0.88,0.99,1.25,1.63c0.36,0.64,0.65,1.29,0.86,1.96c0.21,0.67,0.39,1.4,0.53,2.18c0.14,0.78,0.23,1.51,0.28,2.19
		S33.43,30.09,33.43,30.8z M24.74,7.4C26.25,8.91,27,10.73,27,12.86c0,2.13-0.75,3.95-2.26,5.46c-1.51,1.51-3.33,2.26-5.45,2.26
		c-2.13,0-3.95-0.75-5.46-2.26c-1.51-1.51-2.26-3.33-2.26-5.46c0-2.13,0.75-3.95,2.26-5.45c1.51-1.51,3.33-2.26,5.46-2.26
		C21.42,5.14,23.23,5.9,24.74,7.4z M34.49,1.51c1,1,1.51,2.22,1.51,3.64c0,1.42-0.5,2.63-1.51,3.64c-1,1-2.22,1.51-3.64,1.51
		c-1.42,0-2.63-0.5-3.64-1.51c-1-1-1.51-2.22-1.51-3.64c0-1.42,0.5-2.63,1.51-3.64c1-1,2.22-1.51,3.64-1.51
		C32.28,0,33.49,0.5,34.49,1.51z M38.57,17.38c0,1.04-0.38,1.84-1.12,2.38s-1.67,0.81-2.77,0.81h-2.69
		c-1.38-1.65-3.15-2.5-5.32-2.57c1.08-1.57,1.63-3.28,1.63-5.14c0-0.39-0.03-0.83-0.1-1.33c0.88,0.31,1.77,0.46,2.67,0.46
		c0.79,0,1.59-0.14,2.39-0.43c0.8-0.29,1.46-0.57,1.96-0.85c0.5-0.28,0.79-0.42,0.87-0.42C37.74,10.29,38.57,12.65,38.57,17.38z"/>
</g>
</svg>
