<?xml version="1.0" encoding="utf-8"?>
<!-- Generator: Adobe Illustrator 20.1.0, SVG Export Plug-In . SVG Version: 6.00 Build 0)  -->
<svg version="1.1" id="Alerts" xmlns="http://www.w3.org/2000/svg" xmlns:xlink="http://www.w3.org/1999/xlink" x="0px" y="0px"
	 viewBox="0 0 52.3 41.62" style="enable-background:new 0 0 52.3 41.62;" xml:space="preserve">
<style type="text/css">
	.st0{fill:#02BEE7;}
</style>
<g>
	<path class="st0" d="M50.05,24.14c-0.16,0.19-0.42,0.32-0.68,0.36c-0.03,0-0.06,0-0.1,0c-0.26,0-0.49-0.07-0.68-0.23L26.15,5.55
		L3.7,24.27c-0.23,0.16-0.49,0.26-0.78,0.23c-0.26-0.03-0.52-0.16-0.68-0.36l-2.01-2.4c-0.36-0.42-0.29-1.1,0.13-1.46L23.68,0.85
		c1.36-1.13,3.57-1.13,4.93,0l7.91,6.62V1.14c0-0.58,0.45-1.04,1.04-1.04h6.23c0.58,0,1.04,0.45,1.04,1.04v13.23l7.1,5.9
		c0.42,0.36,0.49,1.04,0.13,1.46L50.05,24.14z M44.83,39.55c0,1.13-0.94,2.07-2.08,2.07H30.3V29.17H22v12.46H9.54
		c-1.13,0-2.08-0.94-2.08-2.07V23.98c0-0.06,0.03-0.13,0.03-0.2L26.15,8.41L44.8,23.78c0.03,0.07,0.03,0.13,0.03,0.2V39.55z"/>
</g>
</svg>
