<?xml version="1.0" encoding="utf-8"?>
<!-- Generator: Adobe Illustrator 20.1.0, SVG Export Plug-In . SVG Version: 6.00 Build 0)  -->
<svg version="1.1" id="Alerts" xmlns="http://www.w3.org/2000/svg" xmlns:xlink="http://www.w3.org/1999/xlink" x="0px" y="0px"
	 viewBox="0 0 102.52 128.23" style="enable-background:new 0 0 102.52 128.23;" xml:space="preserve">
<style type="text/css">
	.st0{fill:#FFFFFF;}
	.st1{fill:#5B606B;}
	.st2{fill:#BCCAD8;}
	.st3{fill:#E21C3C;}
</style>
<g>
	<g>
		<path class="st0" d="M99.38,60.46H22.31c-0.85,0-1.55,0.69-1.55,1.55v63.08c0,0.85,0.69,1.55,1.55,1.55h77.07
			c0.85,0,1.55-0.69,1.55-1.55V62.01C100.92,61.16,100.23,60.46,99.38,60.46z"/>
		<path class="st1" d="M97.64,128.23H24.05c-2.69,0-4.88-2.19-4.88-4.88v-59.6c0-2.69,2.19-4.88,4.88-4.88h73.59
			c2.69,0,4.88,2.19,4.88,4.88v59.6C102.52,126.04,100.33,128.23,97.64,128.23z M24.05,62.06c-0.93,0-1.69,0.76-1.69,1.69v59.6
			c0,0.93,0.76,1.69,1.69,1.69h73.59c0.93,0,1.69-0.76,1.69-1.69v-59.6c0-0.93-0.76-1.69-1.69-1.69H24.05z"/>
	</g>
	<g>
		<rect x="40.88" y="92.45" class="st2" width="39.93" height="3.98"/>
		<rect x="40.88" y="99.13" class="st2" width="39.93" height="3.98"/>
		<rect x="40.88" y="85.76" class="st2" width="39.93" height="3.98"/>
	</g>
	<g>
		<path class="st0" d="M90.05,31.03H12.98c-0.85,0-1.55,0.69-1.55,1.55v63.08c0,0.85,0.69,1.55,1.55,1.55h77.07
			c0.85,0,1.55-0.69,1.55-1.55V32.58C91.6,31.72,90.91,31.03,90.05,31.03z"/>
		<path class="st1" d="M88.31,98.79H14.72c-2.69,0-4.88-2.19-4.88-4.88v-59.6c0-2.69,2.19-4.88,4.88-4.88h73.59
			c2.69,0,4.88,2.19,4.88,4.88v59.6C93.19,96.6,91,98.79,88.31,98.79z M14.72,32.62c-0.93,0-1.69,0.76-1.69,1.69v59.6
			c0,0.93,0.76,1.69,1.69,1.69h73.59c0.93,0,1.69-0.76,1.69-1.69v-59.6c0-0.93-0.76-1.69-1.69-1.69H14.72z"/>
	</g>
	<g>
		<rect x="31.55" y="63.01" class="st2" width="39.93" height="3.98"/>
		<rect x="31.55" y="69.69" class="st2" width="39.93" height="3.98"/>
		<rect x="31.55" y="56.33" class="st2" width="39.93" height="3.98"/>
	</g>
	<g>
		<path class="st0" d="M80.21,1.59H3.14c-0.85,0-1.55,0.69-1.55,1.55v63.08c0,0.85,0.69,1.55,1.55,1.55h77.07
			c0.85,0,1.55-0.69,1.55-1.55V3.14C81.75,2.29,81.06,1.59,80.21,1.59z"/>
		<path class="st1" d="M78.47,69.36H4.88C2.19,69.36,0,67.17,0,64.48V4.88C0,2.19,2.19,0,4.88,0h73.59c2.69,0,4.88,2.19,4.88,4.88
			v59.6C83.35,67.17,81.16,69.36,78.47,69.36z M4.88,3.18c-0.93,0-1.69,0.76-1.69,1.69v59.6c0,0.93,0.76,1.69,1.69,1.69h73.59
			c0.93,0,1.69-0.76,1.69-1.69V4.88c0-0.93-0.76-1.69-1.69-1.69H4.88z"/>
	</g>
	<g>
		<rect x="21.71" y="33.58" class="st2" width="39.93" height="3.98"/>
		<rect x="21.71" y="40.26" class="st2" width="39.93" height="3.98"/>
		<rect x="21.71" y="26.9" class="st2" width="39.93" height="3.98"/>
	</g>
	<rect x="56.31" y="33.58" class="st3" width="5.33" height="3.98"/>
	<rect x="75.48" y="99.13" class="st3" width="5.33" height="3.98"/>
</g>
</svg>
