<?xml version="1.0" encoding="utf-8"?>
<!-- Generator: Adobe Illustrator 22.0.0, SVG Export Plug-In . SVG Version: 6.00 Build 0)  -->
<svg version="1.1" id="Alerts" xmlns="http://www.w3.org/2000/svg" xmlns:xlink="http://www.w3.org/1999/xlink" x="0px" y="0px"
	 width="79.52px" height="123.8px" viewBox="0 0 79.52 123.8" style="enable-background:new 0 0 79.52 123.8;" xml:space="preserve"
	>
<style type="text/css">
	.st0{fill:#FFFFFF;}
	.st1{fill:#5B606B;}
	.st2{fill:#BCCAD8;}
	.st3{fill:#A4B0BD;}
	.st4{fill:#8A95A0;}
</style>
<g>
	<path class="st0" d="M76.45,1.52H3.07c-0.85,0-1.55,0.69-1.55,1.55v117.67c0,0.85,0.69,1.55,1.55,1.55h73.39
		c0.85,0,1.55-0.69,1.55-1.55V3.07C78,2.21,77.31,1.52,76.45,1.52z"/>
	<path class="st1" d="M74.87,123.8H4.65c-2.57,0-4.65-2.09-4.65-4.65V4.65C0,2.09,2.09,0,4.65,0h70.21c2.57,0,4.65,2.09,4.65,4.65
		v114.49C79.52,121.71,77.43,123.8,74.87,123.8z M4.65,3.04c-0.89,0-1.61,0.73-1.61,1.62v114.49c0,0.89,0.72,1.62,1.61,1.62h70.21
		c0.89,0,1.62-0.73,1.62-1.62V4.65c0-0.89-0.73-1.62-1.62-1.62L4.65,3.04L4.65,3.04z"/>
</g>
<g>
	<rect x="20.71" y="30.45" class="st2" width="38.1" height="3.8"/>
	<rect x="20.71" y="36.82" class="st2" width="38.1" height="3.8"/>
	<rect x="20.71" y="24.08" class="st2" width="38.1" height="3.8"/>
</g>
<g>
	<rect x="20.71" y="60.58" class="st2" width="38.1" height="3.8"/>
	<rect x="20.71" y="66.95" class="st2" width="38.1" height="3.8"/>
	<rect x="20.71" y="54.2" class="st2" width="38.1" height="3.8"/>
</g>
<g>
	<rect x="20.71" y="90.25" class="st2" width="38.1" height="3.8"/>
	<rect x="20.71" y="96.62" class="st2" width="38.1" height="3.8"/>
	<rect x="20.71" y="83.87" class="st2" width="38.1" height="3.8"/>
</g>
<rect x="53.73" y="30.45" class="st3" width="5.08" height="3.8"/>
<rect x="53.73" y="36.82" class="st4" width="5.08" height="3.8"/>
<rect x="53.73" y="24.08" class="st3" width="5.08" height="3.8"/>
<rect x="53.73" y="60.58" class="st3" width="5.08" height="3.8"/>
<rect x="53.73" y="66.95" class="st3" width="5.08" height="3.8"/>
<rect x="53.73" y="54.2" class="st4" width="5.08" height="3.8"/>
<rect x="53.73" y="90.25" class="st4" width="5.08" height="3.8"/>
<rect x="53.73" y="96.62" class="st3" width="5.08" height="3.8"/>
<rect x="53.73" y="83.87" class="st3" width="5.08" height="3.8"/>
</svg>
