<?xml version="1.0" encoding="utf-8"?>
<!-- Generator: Adobe Illustrator 20.1.0, SVG Export Plug-In . SVG Version: 6.00 Build 0)  -->
<svg version="1.1" id="Alerts" xmlns="http://www.w3.org/2000/svg" xmlns:xlink="http://www.w3.org/1999/xlink" x="0px" y="0px"
	 viewBox="0 0 30.86 36.84" style="enable-background:new 0 0 30.86 36.84;" xml:space="preserve">
<style type="text/css">
	.st0{fill:#5B606B;}
</style>
<g>
	<path class="st0" d="M30.87,32.32c0,1.07-0.86,1.93-1.93,1.93H1.93C0.86,34.25,0,33.39,0,32.32V5.31c0-1.06,0.86-1.93,1.93-1.93
		h18.65c1.07,0,2.53,0.6,3.3,1.37l5.63,5.63c0.76,0.76,1.37,2.23,1.37,3.3V32.32z M28.29,31.68V13.67c0-0.38-0.34-1.21-0.6-1.47
		l-5.65-5.65c-0.28-0.28-1.06-0.6-1.47-0.6v8.36c0,1.07-0.86,1.93-1.93,1.93H7.07c-1.07,0-1.93-0.86-1.93-1.93V5.96H2.57v25.72h2.57
		v-8.36c0-1.06,0.86-1.93,1.93-1.93h16.72c1.07,0,1.93,0.86,1.93,1.93v8.36H28.29z M23.15,31.68v-7.72H7.72v7.72H23.15z M18.01,6.6
		c0-0.34-0.3-0.64-0.64-0.64H13.5c-0.34,0-0.64,0.3-0.64,0.64v6.43c0,0.34,0.3,0.64,0.64,0.64h3.86c0.34,0,0.64-0.3,0.64-0.64V6.6z"
		/>
</g>
</svg>
