<?xml version="1.0" encoding="utf-8"?>
<!-- Generator: Adobe Illustrator 20.1.0, SVG Export Plug-In . SVG Version: 6.00 Build 0)  -->
<svg version="1.1" id="Alerts" xmlns="http://www.w3.org/2000/svg" xmlns:xlink="http://www.w3.org/1999/xlink" x="0px" y="0px"
	 viewBox="0 0 52.3 41.62" style="enable-background:new 0 0 52.3 41.62;" xml:space="preserve">
<style type="text/css">
	.st0{fill:#FCB81E;}
</style>
<g>
	<path class="st0" d="M51.72,14.24l-25.29,7.95c-0.09,0.02-0.16,0.02-0.23,0.02s-0.13,0-0.23-0.02l-14.72-4.65
		c-1.29,1.02-2.19,3.5-2.37,6.55c0.86,0.5,1.42,1.4,1.42,2.46c0,1.02-0.52,1.9-1.31,2.42l1.31,9.78c0.02,0.2-0.04,0.41-0.18,0.56
		C10,39.46,9.8,39.55,9.59,39.55H5.26c-0.2,0-0.41-0.09-0.54-0.25c-0.14-0.16-0.2-0.36-0.18-0.56l1.31-9.78
		c-0.79-0.52-1.31-1.4-1.31-2.42c0-1.08,0.61-2.01,1.47-2.51c0.13-2.64,0.81-5.49,2.21-7.45L0.7,14.24c-0.29-0.11-0.5-0.38-0.5-0.7
		c0-0.32,0.2-0.59,0.5-0.7L25.98,4.9c0.09-0.02,0.16-0.02,0.23-0.02s0.13,0,0.23,0.02l25.29,7.95c0.29,0.11,0.5,0.38,0.5,0.7
		C52.22,13.86,52.02,14.13,51.72,14.24z M40.66,27.99c0.18,3.18-6.48,5.78-14.45,5.78s-14.63-2.6-14.45-5.78l0.41-7.13l12.96,4.09
		c0.36,0.11,0.72,0.16,1.08,0.16s0.72-0.04,1.08-0.16l12.96-4.09L40.66,27.99z"/>
</g>
</svg>
