<?xml version="1.0" encoding="utf-8"?>
<!-- Generator: Adobe Illustrator 20.1.0, SVG Export Plug-In . SVG Version: 6.00 Build 0)  -->
<svg version="1.1" id="Form_controls" xmlns="http://www.w3.org/2000/svg" xmlns:xlink="http://www.w3.org/1999/xlink" x="0px"
	 y="0px" viewBox="0 0 14 14.33" style="enable-background:new 0 0 14 14.33;" xml:space="preserve">
<style type="text/css">
	.st0{enable-background:new    ;}
	.st1{fill:#FFFFFF;}
</style>
<g class="st0">
	<path class="st1" d="M12.84,5.27l-5.66,5.66l-1.06,1.06c-0.14,0.14-0.34,0.22-0.53,0.22s-0.39-0.08-0.53-0.22l-1.06-1.06L1.16,8.1
		C1.02,7.96,0.94,7.77,0.94,7.57s0.08-0.39,0.22-0.53l1.06-1.06c0.14-0.14,0.34-0.22,0.53-0.22s0.39,0.08,0.53,0.22l2.3,2.3
		l5.13-5.13c0.14-0.14,0.34-0.22,0.53-0.22s0.39,0.08,0.53,0.22l1.06,1.06c0.14,0.14,0.22,0.34,0.22,0.53S12.98,5.13,12.84,5.27z"/>
</g>
</svg>
