<?xml version="1.0" encoding="utf-8"?>
<!-- Generator: Adobe Illustrator 20.1.0, SVG Export Plug-In . SVG Version: 6.00 Build 0)  -->
<svg version="1.1" id="Alerts" xmlns="http://www.w3.org/2000/svg" xmlns:xlink="http://www.w3.org/1999/xlink" x="0px" y="0px"
	 viewBox="0 0 30.86 36.84" style="enable-background:new 0 0 30.86 36.84;" xml:space="preserve">
<style type="text/css">
	.st0{enable-background:new    ;}
	.st1{fill:#5B606B;}
</style>
<g class="st0">
	<path class="st1" d="M15.43,34.25C6.91,34.25,0,27.32,0,18.76C0,10.22,6.91,3.28,15.43,3.28s15.43,6.93,15.43,15.47
		C30.87,27.32,23.95,34.25,15.43,34.25z M21.46,9.61c-1.73-1.17-3.8-1.83-6.03-1.83C9.4,7.79,4.5,12.71,4.5,18.76
		c0,2.23,0.66,4.28,1.79,6.01L21.46,9.61z M24.62,12.83L9.47,27.96c1.73,1.12,3.78,1.79,5.97,1.79c6.03,0,10.93-4.92,10.93-10.99
		C26.37,16.57,25.72,14.54,24.62,12.83z"/>
</g>
</svg>
