<?xml version="1.0" encoding="utf-8"?>
<!-- Generator: Adobe Illustrator 22.0.0, SVG Export Plug-In . SVG Version: 6.00 Build 0)  -->
<svg version="1.1" id="Alerts" xmlns="http://www.w3.org/2000/svg" xmlns:xlink="http://www.w3.org/1999/xlink" x="0px" y="0px"
	 width="15.9px" height="16px" viewBox="0 0 15.9 16" style="enable-background:new 0 0 15.9 16;" xml:space="preserve">
<style type="text/css">
	.st0{fill:#FFFFFF;}
	.st1{enable-background:new    ;}
	.st2{fill:#E21C3C;}
</style>
<ellipse class="st0" cx="7.9" cy="8.2" rx="4.3" ry="6.3"/>
<g class="st1">
	<path class="st2" d="M16,8c0,4.4-3.6,8-8,8s-8-3.6-8-8s3.6-8,8-8S16,3.6,16,8z M9.5,2.9c0-0.1,0-0.1-0.1-0.2
		C9.3,2.7,9.2,2.7,9.1,2.7H6.8c-0.1,0-0.2,0-0.2,0.1c-0.1,0-0.1,0.1-0.1,0.2l0.2,6.5c0,0.1,0.2,0.3,0.4,0.3h1.9
		c0.2,0,0.3-0.1,0.4-0.3L9.5,2.9z M9.3,11c0-0.2-0.1-0.3-0.3-0.3H7c-0.2,0-0.3,0.2-0.3,0.3v2c0,0.2,0.2,0.3,0.3,0.3h2
		c0.2,0,0.3-0.2,0.3-0.3V11z"/>
</g>
</svg>
