<?xml version="1.0" encoding="utf-8"?>
<!-- Generator: Adobe Illustrator 19.2.1, SVG Export Plug-In . SVG Version: 6.00 Build 0)  -->
<!DOCTYPE svg PUBLIC "-//W3C//DTD SVG 1.1//EN" "http://www.w3.org/Graphics/SVG/1.1/DTD/svg11.dtd">
<svg version="1.1" id="Alerts" xmlns="http://www.w3.org/2000/svg" xmlns:xlink="http://www.w3.org/1999/xlink" x="0px" y="0px"
	 viewBox="0 0 15.9 16" style="enable-background:new 0 0 15.9 16;" xml:space="preserve">
<style type="text/css">
	.st0{fill:#FFFFFF;}
	.st1{enable-background:new    ;}
	.st2{fill:#E21C3C;}
</style>
<ellipse class="st0" cx="7.9" cy="8.2" rx="4.3" ry="6.3"/>
<g class="st1">
	<path class="st2" d="M15.9,8c0,4.4-3.6,8-7.9,8S0,12.4,0,8s3.6-8,7.9-8S15.9,3.6,15.9,8z M9.4,3c0-0.2,0-0.3-0.3-0.3H6.8
		C6.5,2.7,6.5,2.8,6.5,3l0.2,6.5c0,0.1,0.2,0.3,0.4,0.3h1.9c0.2,0,0.3-0.1,0.4-0.3L9.4,3z M9.2,11c0-0.2-0.1-0.3-0.3-0.3H7
		c-0.2,0-0.3,0.2-0.3,0.3v2c0,0.2,0.2,0.3,0.3,0.3h2c0.2,0,0.3-0.2,0.3-0.3V11z"/>
</g>
</svg>
