<?xml version="1.0" encoding="utf-8"?>
<!-- Generator: Adobe Illustrator 22.1.0, SVG Export Plug-In . SVG Version: 6.00 Build 0)  -->
<svg version="1.1" id="Layer_1" xmlns="http://www.w3.org/2000/svg" xmlns:xlink="http://www.w3.org/1999/xlink" x="0px" y="0px"
	 width="67.179px" height="67.179px" viewBox="0 0 67.179 67.179" style="enable-background:new 0 0 67.179 67.179;"
	 xml:space="preserve">
<style type="text/css">
	.st0{fill:#45A362;}
	.st1{fill:#FFFFFF;}
</style>
<circle class="st0" cx="33.59" cy="33.59" r="33.59"/>
<g>
	<path class="st1" d="M35.449,22.349c0.177-0.177,0.376-0.266,0.598-0.266s0.398,0.088,0.531,0.266l7.371,7.371
		c0.177,0.133,0.266,0.31,0.266,0.531s-0.088,0.42-0.266,0.598L26.551,48.247l-8.102,1.461c-0.531,0.088-0.996-0.066-1.395-0.465
		s-0.553-0.863-0.465-1.395l1.461-8.102L35.449,22.349z M22.434,43.864v-3.188h-2.391l-0.797,4.25l2.125,2.125l4.25-0.797v-2.391
		H22.434z M24.824,38.286c0.177,0.177,0.398,0.266,0.664,0.266s0.487-0.088,0.664-0.266L36.379,28.06
		c0.177-0.177,0.266-0.398,0.266-0.664s-0.088-0.487-0.266-0.664s-0.398-0.266-0.664-0.266s-0.487,0.088-0.664,0.266L24.824,36.958
		c-0.177,0.177-0.266,0.398-0.266,0.664S24.647,38.109,24.824,38.286z M49.66,25.138c0.62-0.62,0.93-1.373,0.93-2.258
		s-0.31-1.638-0.93-2.258l-3.984-3.984c-0.62-0.62-1.373-0.93-2.258-0.93s-1.638,0.31-2.258,0.93l-3.055,3.055
		c-0.177,0.177-0.266,0.376-0.266,0.598s0.088,0.398,0.266,0.531l7.371,7.371c0.133,0.177,0.31,0.266,0.531,0.266
		s0.42-0.088,0.598-0.266L49.66,25.138z"/>
</g>
</svg>
